<?xml version="1.0" encoding="UTF-8"?>
<svg xmlns="http://www.w3.org/2000/svg" xmlns:se="https://standardebooks.org/vocab/1.0" version="1.1" viewBox="0 0 1400 340" se:generated-from="2e291e6f3ff608e273a88a3e8ad526a14c8cf729">
	<path d="M 206.96856,66.843806 225.30828,66.843806 225.30828,128.60001 242.89944,128.60001 242.89944,66.843806 261.23916,66.843806 261.23916,51.404756 206.96856,51.404756 206.96856,66.843806 Z"/>
	<path d="M 290.1653,97.628336 315.05492,97.628336 315.05492,128.60001 332.64608,128.60001 332.64608,51.404756 315.05492,51.404756 315.05492,82.189286 290.1653,82.189286 290.1653,51.404756 272.57414,51.404756 272.57414,128.60001 290.1653,128.60001 290.1653,97.628336 Z"/>
	<path d="M 393.0132,51.404756 348.84816,51.404756 348.84816,128.60001 393.0132,128.60001 393.0132,113.16096 366.43932,113.16096 366.43932,97.628336 391.89036,97.628336 391.89036,82.189286 366.43932,82.189286 366.43932,66.843806 393.0132,66.843806 393.0132,51.404756 Z"/>
	<path d="M 429.27714,66.843806 447.61686,66.843806 447.61686,128.60001 465.20802,128.60001 465.20802,66.843806 483.54774,66.843806 483.54774,51.404756 429.27714,51.404756 429.27714,66.843806 Z"/>
	<path d="M 512.47388,51.404756 494.88272,51.404756 494.88272,128.60001 512.47388,128.60001 512.47388,51.404756 Z"/>
	<path d="M 592.57259,128.60001 610.16375,128.60001 603.23957,51.404756 584.52557,51.404756 567.40226,95.944076 550.27895,51.404756 531.56495,51.404756 524.64077,128.60001 542.23193,128.60001 545.88116,82.844276 546.34901,82.844276 562.16234,128.13216 572.64218,128.13216 588.45551,82.844276 588.92336,82.844276 592.57259,128.60001 Z"/>
	<path d="M 666.37577,51.404756 622.21073,51.404756 622.21073,128.60001 666.37577,128.60001 666.37577,113.16096 639.80189,113.16096 639.80189,97.628336 665.25293,97.628336 665.25293,82.189286 639.80189,82.189286 639.80189,66.843806 666.37577,66.843806 666.37577,51.404756 Z"/>
	<path d="M 775.8889,128.60001 793.48006,128.60001 786.55588,51.404756 767.84188,51.404756 750.71857,95.944076 733.59526,51.404756 714.88126,51.404756 707.95708,128.60001 725.54824,128.60001 729.19747,82.844276 729.66532,82.844276 745.47865,128.13216 755.95849,128.13216 771.77182,82.844276 772.23967,82.844276 775.8889,128.60001 Z"/>
	<path d="M 844.7329,51.404756 828.45172,51.404756 797.29291,128.60001 816.19405,128.60001 821.90182,113.16096 851.2828,113.16096 856.99057,128.60001 875.89171,128.60001 844.7329,51.404756 Z M 845.29432,97.721906 827.8903,97.721906 836.49874,75.265106 836.68588,75.265106 845.29432,97.721906 Z"/>
	<path d="M 921.96453,112.69311 C 904.2798,112.69311 896.51349,100.34187 896.51349,89.955596 896.51349,79.662896 904.2798,67.311656 921.96453,67.311656 930.94725,67.311656 937.12287,72.083726 937.12287,72.083726 L 944.60847,57.112526 C 944.60847,57.112526 936.00003,50.001206 919.251,50.001206 897.35562,50.001206 877.42521,67.966646 877.42521,90.142736 877.42521,112.22526 897.44919,130.00356 919.251,130.00356 936.00003,130.00356 944.60847,122.89224 944.60847,122.89224 L 937.12287,107.92104 C 937.12287,107.92104 930.94725,112.69311 921.96453,112.69311 Z"/>
	<path d="M 974.02149,97.628336 998.91111,97.628336 998.91111,128.60001 1016.5023,128.60001 1016.5023,51.404756 998.91111,51.404756 998.91111,82.189286 974.02149,82.189286 974.02149,51.404756 956.43033,51.404756 956.43033,128.60001 974.02149,128.60001 974.02149,97.628336 Z"/>
	<path d="M 1050.2955,51.404756 1032.7043,51.404756 1032.7043,128.60001 1050.2955,128.60001 1050.2955,51.404756 Z"/>
	<path d="M 1084.1706,80.692166 1084.3577,80.692166 1115.0487,128.60001 1132.6399,128.60001 1132.6399,51.404756 1115.0487,51.404756 1115.0487,99.312596 1114.8616,99.312596 1084.1706,51.404756 1066.5794,51.404756 1066.5794,128.60001 1084.1706,128.60001 1084.1706,80.692166 Z"/>
	<path d="M 1193.0494,51.404756 1148.8844,51.404756 1148.8844,128.60001 1193.0494,128.60001 1193.0494,113.16096 1166.4755,113.16096 1166.4755,97.628336 1191.9266,97.628336 1191.9266,82.189286 1166.4755,82.189286 1166.4755,66.843806 1193.0494,66.843806 1193.0494,51.404756 Z"/>
	<path d="M 471.82465,265.72043 490.49253,265.72043 490.49253,288.95001 503.68637,288.95001 503.68637,231.05151 490.49253,231.05151 490.49253,254.14073 471.82465,254.14073 471.82465,231.05151 458.63081,231.05151 458.63081,288.95001 471.82465,288.95001 471.82465,265.72043 Z"/>
	<path d="M 525.08875,273.93149 C 520.66741,273.93149 517.08823,277.51067 517.08823,282.00219 517.08823,286.42353 520.66741,290.00271 525.08875,290.00271 529.58027,290.00271 533.15945,286.42353 533.15945,282.00219 533.15945,277.51067 529.58027,273.93149 525.08875,273.93149 Z"/>
	<path d="M 623.16794,256.52685 596.42936,256.52685 596.42936,266.70295 609.76356,266.70295 C 609.76356,273.79113 603.51754,277.86157 597.20134,277.86157 589.06046,277.86157 582.46354,269.86105 582.46354,260.03585 582.46354,250.00011 589.06046,241.92941 597.20134,241.92941 602.32448,241.92941 606.74582,243.96463 610.11446,249.36849 L 618.7466,239.89419 C 613.69364,233.78853 606.60546,229.99881 596.42936,229.99881 580.1476,229.99881 568.217,243.40319 568.217,260.03585 568.217,276.59833 580.8494,290.00271 596.42936,290.00271 607.79852,290.00271 620.00984,283.75669 623.16794,269.08907 L 623.16794,256.52685 Z"/>
	<path d="M 641.93199,273.93149 C 637.51065,273.93149 633.93147,277.51067 633.93147,282.00219 633.93147,286.42353 637.51065,290.00271 641.93199,290.00271 646.42351,290.00271 650.00269,286.42353 650.00269,282.00219 650.00269,277.51067 646.42351,273.93149 641.93199,273.93149 Z"/>
	<path d="M 726.18682,288.95001 740.78426,288.95001 757.27656,231.05151 742.67912,231.05151 732.78374,270.77339 732.43284,270.77339 721.90584,231.05151 711.94028,231.05151 701.41328,270.77339 701.06238,270.77339 691.167,231.05151 676.49938,231.05151 692.99168,288.95001 707.6593,288.95001 716.92306,256.45667 726.18682,288.95001 Z"/>
	<path d="M 798.5662,231.05151 765.44124,231.05151 765.44124,288.95001 798.5662,288.95001 798.5662,277.37031 778.63508,277.37031 778.63508,265.72043 797.72404,265.72043 797.72404,254.14073 778.63508,254.14073 778.63508,242.63121 798.5662,242.63121 798.5662,231.05151 Z"/>
	<path d="M 824.34498,231.05151 811.15114,231.05151 811.15114,288.95001 844.2761,288.95001 844.2761,277.37031 824.34498,277.37031 824.34498,231.05151 Z"/>
	<path d="M 868.95829,231.05151 855.76445,231.05151 855.76445,288.95001 888.88941,288.95001 888.88941,277.37031 868.95829,277.37031 868.95829,231.05151 Z"/>
	<path d="M 921.71248,229.99881 C 912.37854,229.99881 902.83406,236.87645 902.83406,247.68417 902.83406,253.71965 906.9045,259.12351 913.85232,262.56233 920.72996,266.00115 926.9058,267.89601 926.9058,272.10681 926.9058,277.51067 921.43176,277.79139 918.55438,277.79139 912.09782,277.79139 904.37802,271.26465 904.37802,271.26465 L 897.7811,282.35309 C 897.7811,282.35309 905.99216,290.00271 919.5369,290.00271 930.83588,290.00271 941.36288,285.16029 941.36288,271.33483 941.36288,263.75539 934.2747,258.28135 927.81814,255.54433 921.22122,252.73713 915.74718,250.42119 915.74718,247.19291 915.74718,244.03481 918.1333,241.99959 922.62482,241.99959 928.59012,241.99959 934.34488,245.99985 934.34488,245.99985 L 939.67856,235.47285 C 939.67856,235.47285 932.23948,229.99881 921.71248,229.99881 Z"/>
</svg>
